<svg xmlns="http://www.w3.org/2000/svg" width="451.375" height="115.537"><path fill="#EB722E" d="M0 115.537h451.37v-115.542h-451.37v115.542z"/><path fill="#fff" d="M58.045 29.535c4.77 0 8.65 3.88 8.65 8.65 0 4.766-3.881 8.646-8.65 8.646-4.767 0-8.648-3.88-8.648-8.646-.001-4.771 3.882-8.65 8.648-8.65zm0 29.534c11.522 0 20.892-9.367 20.892-20.884 0-11.523-9.369-20.894-20.892-20.894-11.521 0-20.892 9.372-20.892 20.894 0 11.517 9.371 20.884 20.892 20.884"/><path fill="#fff" d="M66.497 76.11c4.253-.969 8.355-2.65 12.131-5.023 2.86-1.802 3.722-5.581 1.921-8.439-1.8-2.864-5.577-3.727-8.44-1.924-8.559 5.381-19.575 5.377-28.127 0-2.864-1.803-6.642-.94-8.439 1.924-1.802 2.86-.94 6.638 1.918 8.439 3.775 2.37 7.877 4.055 12.129 5.023l-11.679 11.681c-2.388 2.39-2.388 6.265.003 8.655 1.196 1.193 2.76 1.791 4.325 1.791 1.568 0 3.134-.598 4.33-1.791l11.474-11.476 11.481 11.477c2.387 2.39 6.262 2.39 8.65 0 2.395-2.391 2.395-6.268 0-8.655l-11.677-11.682"/><path fill="#fff" d="M217.85 57.183c1.061-.564 3.023-2.334 3.688-4.639l1.58-6.13c.03-.095.013-.2-.045-.278-.058-.081-.149-.129-.245-.129h-4.091c-.134 0-.253.09-.291.222 0 0-1.022 4.795-1.53 6.084-.507 1.289-1.795 2.456-2.55 2.92-.381.234-.776.381-1.206.444-.435.066-.89.098-1.351.098h-3.987v-9.456c0-.171-.136-.313-.304-.313h-4.091c-.17 0-.305.142-.305.313v25.422c0 .173.135.312.305.312h4.091c.168 0 .304-.139.304-.312v-11.907h4.532c.761 0 5.162.558 5.553 3.722l.89 8.271c.036.134.158.228.292.228h4.19c.095 0 .186-.047.244-.127.058-.078.075-.182.046-.277 0 0-.764-5.598-1.389-9.504-.625-3.907-4.404-4.996-4.33-4.964zm75.299 8.045c-.059-.066-.141-.104-.226-.104-.114-.021-.168.039-.226.104-.575.656-1.314 1.248-2.195 1.754-.871.504-1.819.758-2.82.758-2.227 0-3.968-.715-5.18-2.127-1.222-1.416-1.843-3.613-1.843-6.533 0-2.952.619-5.159 1.843-6.558 1.21-1.394 2.951-2.1 5.18-2.1.92 0 1.831.225 2.712.664.889.437 1.664 1.04 2.301 1.792.058.068.17.112.229.107.087 0 .171-.037.229-.105l2.643-3.076c.107-.124.102-.315-.016-.432-1.086-1.077-2.32-1.96-3.671-2.62-1.371-.666-2.925-1.006-4.619-1.006-1.458 0-2.893.249-4.265.735-1.385.493-2.629 1.284-3.703 2.353s-1.945 2.458-2.59 4.131c-.646 1.67-.972 3.728-.972 6.113 0 2.354.326 4.393.972 6.059.645 1.678 1.516 3.069 2.59 4.137 1.074 1.072 2.318 1.863 3.703 2.351 1.373.487 2.808.735 4.265.735 1.732 0 3.303-.338 4.669-1.004 1.354-.662 2.589-1.563 3.674-2.676.116-.117.12-.309.01-.433l-2.69-3.022-.004.003zm21.494 0c-.059-.066-.14-.104-.225-.104-.055-.016-.17.039-.226.105-.561.644-1.298 1.232-2.191 1.752-.87.504-1.818.758-2.82.758-2.224 0-3.967-.715-5.184-2.127-1.224-1.424-1.844-3.62-1.844-6.533 0-2.944.62-5.151 1.843-6.558 1.216-1.392 2.96-2.1 5.185-2.1.919 0 1.829.225 2.712.664.886.434 1.658 1.038 2.296 1.792.056.068.141.107.229.107h.001c.086 0 .17-.037.229-.105l2.645-3.076c.107-.124.102-.315-.016-.432-1.085-1.077-2.319-1.958-3.671-2.62-1.375-.666-2.93-1.006-4.619-1.006-1.459 0-2.895.249-4.269.735-1.381.493-2.626 1.284-3.7 2.353-1.076 1.069-1.948 2.458-2.59 4.131-.645 1.677-.973 3.735-.973 6.113 0 2.346.328 4.385.973 6.059.642 1.678 1.513 3.069 2.59 4.137 1.074 1.072 2.32 1.863 3.7 2.351 1.374.487 2.81.735 4.269.735 1.73 0 3.301-.338 4.666-1.004 1.355-.662 2.592-1.563 3.676-2.676.116-.121.12-.311.01-.433l-2.694-3.022v.004zm-46.714-1.743c0 .896-.17 1.627-.501 2.168-.339.553-.79 1.002-1.346 1.334-.564.339-1.218.576-1.94.703-.766.137-1.515.199-2.291.199-1.749 0-3.055-.338-3.877-1.006-.811-.662-1.202-2.146-1.202-3.254 0-1.1.381-2.546 1.167-3.137.809-.607 1.99-.915 3.514-.915h6.479v3.909l-.003-.001zm4.701-9.225c0-1.643-.279-3.037-.833-4.138-.55-1.101-1.311-1.987-2.264-2.627-.931-.635-2.039-1.089-3.289-1.357-1.229-.259-2.53-.391-3.862-.391-1.716 0-3.342.29-4.836.864-1.505.586-2.752 1.453-3.705 2.576-.102.122-.099.303.01.42l2.594 2.817c.059.066.136.095.228.098.086-.003.169-.042.225-.11.536-.644 1.235-1.157 2.084-1.526.855-.376 2.058-.566 3.569-.566 1.917 0 3.315.325 4.156.964.823.625 1.225 1.565 1.225 2.876v1.309h-7.475c-1.367 0-2.574.215-3.58.637-1.018.422-1.875.999-2.55 1.711-.675.713-1.19 1.55-1.538 2.491-.344.93-.519 2.549-.519 3.578 0 2.273.797 4.793 2.368 6.266 1.562 1.467 3.821 2.209 6.715 2.209 1.724 0 3.221-.25 4.446-.737.9-.358 1.614-.804 2.131-1.323l.52 1.439c0 .174.136.314.304.314h4.095c.168 0 .305-.14.305-.314 0 0-.521-1.713-.521-4.066l-.003-13.414zm143.836-8.254h-3.452c-.1 0-.191.049-.247.132l-9.21 13.33-3.146 4.717v-17.866c0-.171-.136-.313-.304-.313h-4.091c-.166 0-.305.142-.305.313v25.422c0 .173.139.312.305.312h3.938c.101 0 .194-.049.251-.134l11.77-17.471v17.293c0 .173.136.313.304.313h4.188c.168 0 .305-.14.305-.313v-25.421c-.001-.171-.137-.313-.306-.314zm-29.866 11.177c1.061-.564 3.023-2.334 3.688-4.639l1.58-6.13c.03-.095.013-.2-.045-.278-.058-.081-.149-.129-.244-.129h-4.094c-.133 0-.251.09-.29.222 0 0-1.022 4.795-1.53 6.084-.507 1.289-1.795 2.456-2.55 2.92-.381.234-.776.381-1.208.444-.434.066-.889.098-1.35.098h-3.987v-9.456c0-.171-.136-.313-.304-.313h-4.092c-.169 0-.304.142-.304.313v25.422c0 .173.135.312.304.312h4.092c.168 0 .304-.139.304-.312v-11.907h4.532c.76 0 5.162.558 5.553 3.722l.89 8.271c.036.134.156.228.292.228h4.189c.096 0 .188-.047.245-.127.056-.078.075-.182.046-.277 0 0-.766-5.598-1.391-9.504-.624-3.907-4.401-4.996-4.326-4.964zm-19.911-11.177h-3.454c-.1 0-.191.049-.249.132l-9.205 13.33-3.146 4.723v-17.872c0-.171-.138-.313-.304-.313h-4.091c-.168 0-.304.142-.304.313v25.422c0 .173.136.312.304.312h3.941c.1 0 .193-.049.25-.134l11.765-17.468v17.29c0 .173.136.313.304.313h4.189c.168 0 .305-.14.305-.313v-25.421c0-.171-.138-.313-.305-.314zm-26.282 0h-4.09c-.169 0-.304.142-.304.313v9.353h-10.865v-9.353c0-.171-.135-.313-.304-.313h-4.092c-.169 0-.305.142-.305.313v25.422c0 .173.136.312.305.312h4.092c.169 0 .304-.139.304-.312v-12.06h10.865v12.061c0 .173.135.312.304.312h4.09c.168 0 .304-.139.304-.312v-25.423c0-.171-.136-.313-.304-.313zm-145.639 16.245c0 3.132-2.595 5.671-5.795 5.671-3.201 0-5.797-2.539-5.797-5.671v-6.304c0-3.132 2.596-5.671 5.797-5.671 3.2 0 5.795 2.539 5.795 5.671v6.304zm-5.776-16.453c-5.781 0-10.469 4.595-10.469 10.261v6.038c0 5.668 4.688 10.264 10.469 10.264 5.782 0 10.469-4.596 10.469-10.264v-6.038c0-5.667-4.686-10.261-10.469-10.261zm-46.069 21.887h-11.03c.596-1.108.994-2.463 1.188-4.031.216-1.752.545-3.991.679-6.659l.586-6.675h8.579l-.002 17.365zm7.086 0h-2.29v-21.367c0-.171-.136-.313-.304-.313h-16.948c-.162 0-.296.132-.304.298l-.804 10.808c-.102 1.638-.354 3.037-.453 4.197-.1 1.144-.256 2.135-.464 2.944-.211.808-.496 1.462-.873 2-.367.515-.804 1.086-1.468 1.399-.664.312-2.435.449-2.435.449-.145.026-.25.155-.25.307v10.252c0 .173.136.312.305.312h4.093c.168 0 .304-.139.304-.312v-6.605h17.497v6.605c0 .173.135.312.304.312h4.088c.169 0 .306-.139.306-.312v-10.662c0-.171-.137-.312-.306-.312h.002zm23.985-21.68h-4.093c-.168 0-.304.142-.304.313v9.353h-10.863v-9.353c0-.171-.136-.313-.304-.313h-4.092c-.169 0-.304.142-.304.313v25.421c0 .174.135.314.304.314h4.092c.168 0 .304-.14.304-.314v-12.058h10.863v12.059c0 .174.136.314.304.314h4.093c.168 0 .304-.14.304-.314v-25.422c0-.171-.136-.313-.304-.313zm-56.726 16.245c0 3.132-2.596 5.671-5.796 5.671-3.201 0-5.797-2.539-5.797-5.671v-6.304c0-3.132 2.596-5.671 5.797-5.671 3.2 0 5.796 2.539 5.796 5.671v6.304zm-5.776-16.453c-5.782 0-10.469 4.595-10.469 10.261v6.037c0 5.67 4.687 10.264 10.469 10.264s10.469-4.594 10.469-10.264v-6.037c0-5.667-4.687-10.261-10.469-10.261zm137.166.207h-16.584c-.169 0-.304.142-.304.313 0 0 .079 11.773-.855 16.773-.372 2.002-.561 2.283-.971 2.978-.399.68-.919 1.183-1.546 1.494-.694.348-1.48.689-2.337 1.014-.152.059-.234.23-.186.388l1.094 3.538c.041.132.16.217.29.217l.056-.005c1.323-.243 2.518-.644 3.55-1.183 1.055-.549 1.959-1.383 2.685-2.487.714-1.079 1.272-2.522 1.664-4.282.389-1.75.659-4.104.815-6.604l.343-7.839h7.796v21.421c0 .173.135.312.305.312h4.188c.168 0 .304-.139.304-.312v-25.423c0-.171-.136-.313-.304-.313"/></svg>