<svg xmlns="http://www.w3.org/2000/svg" width="116.088" height="115.537"><path fill="#EB722E" d="M0 115.537h116.087v-115.542h-116.087v115.542z"/><path fill="#fff" d="M58.044 29.535c4.771 0 8.65 3.88 8.65 8.65 0 4.766-3.879 8.646-8.65 8.646-4.766 0-8.649-3.88-8.649-8.646-.001-4.771 3.883-8.65 8.649-8.65zm0 29.534c11.524 0 20.892-9.367 20.892-20.884 0-11.523-9.368-20.894-20.892-20.894-11.521 0-20.891 9.372-20.891 20.894 0 11.517 9.37 20.884 20.891 20.884"/><path fill="#fff" d="M66.497 76.112c4.253-.969 8.354-2.651 12.131-5.025 2.859-1.802 3.722-5.58 1.919-8.439-1.799-2.864-5.575-3.727-8.439-1.924-8.558 5.381-19.575 5.379-28.127 0-2.864-1.803-6.642-.94-8.438 1.924-1.802 2.861-.941 6.639 1.917 8.439 3.777 2.371 7.878 4.057 12.131 5.025l-11.681 11.679c-2.388 2.39-2.388 6.265.003 8.655 1.196 1.193 2.761 1.791 4.326 1.791 1.567 0 3.135-.598 4.331-1.791l11.472-11.476 11.482 11.477c2.388 2.39 6.262 2.39 8.651 0 2.394-2.391 2.394-6.266 0-8.655l-11.678-11.68"/></svg>