<svg xmlns="http://www.w3.org/2000/svg" width="165" height="296.25"><path fill="#EB722E" d="M112.021 218.856c14.873-3.382 29.221-9.296 42.416-17.593 10.005-6.299 13.016-19.525 6.713-29.511-6.298-10.018-19.508-13.044-29.523-6.729-29.931 18.805-68.461 18.805-98.376 0-10.001-6.315-23.231-3.289-29.511 6.729-6.3 10.001-3.289 23.212 6.699 29.511 13.211 8.28 27.545 14.211 42.403 17.593l-40.823 40.835c-8.356 8.359-8.356 21.908.018 30.27 4.178 4.177 9.646 6.264 15.13 6.264 5.471 0 10.954-2.087 15.134-6.264l40.13-40.146 40.16 40.146c8.356 8.372 21.906 8.372 30.263 0 8.376-8.361 8.376-21.91 0-30.27l-40.833-40.835z"/><path fill="#EB722E" d="M148.4 36.707l-59.75-34.491c-3.84-2.221-8.572-2.221-12.396 0l-59.765 34.491c-3.84 2.228-6.206 6.314-6.206 10.754v68.983c0 4.425 2.366 8.527 6.206 10.739l59.765 34.505c1.906 1.106 4.056 1.658 6.191 1.658 2.137 0 4.287-.552 6.206-1.658l59.75-34.505c3.843-2.212 6.208-6.314 6.208-10.739v-68.983c-.001-4.44-2.366-8.526-6.209-10.754zm-65.955 81.901c-20.249 0-36.672-16.407-36.672-36.657 0-20.249 16.423-36.672 36.672-36.672 20.251 0 36.673 16.424 36.673 36.672 0 20.25-16.422 36.657-36.673 36.657z"/></svg>