<svg xmlns="http://www.w3.org/2000/svg" width="478.75" height="101.25"><path fill="#E27E35" d="M29.306 15.308c5.963 0 10.812 4.849 10.812 10.812 0 5.957-4.85 10.808-10.812 10.808-5.957 0-10.812-4.851-10.812-10.808 0-5.963 4.855-10.812 10.812-10.812zm0 36.919c14.404 0 26.113-11.71 26.113-26.106 0-14.402-11.709-26.117-26.113-26.117-14.401 0-26.114 11.714-26.114 26.117 0 14.396 11.713 26.106 26.114 26.106z"/><path fill="#E27E35" d="M39.871 73.529c5.316-1.211 10.443-3.314 15.165-6.28 3.573-2.253 4.65-6.978 2.398-10.552-2.249-3.579-6.971-4.657-10.55-2.404-10.696 6.727-24.47 6.723-35.159 0-3.58-2.253-8.301-1.175-10.548 2.404-2.251 3.577-1.177 8.299 2.397 10.552 4.721 2.964 9.848 5.069 15.164 6.28l-14.6 14.6c-2.985 2.988-2.985 7.831.003 10.818 1.495 1.492 3.451 2.24 5.407 2.24 1.96 0 3.919-.748 5.414-2.24l14.34-14.346 14.353 14.346c2.985 2.988 7.828 2.988 10.815 0 2.991-2.987 2.991-7.834 0-10.818l-14.599-14.6"/><path fill="#666" d="M229.062 49.868c1.326-.706 3.781-2.917 4.611-5.799.829-2.88 1.974-7.663 1.974-7.663.038-.119.016-.25-.059-.348-.07-.101-.183-.162-.305-.162h-5.114c-.165 0-.314.113-.363.277 0 0-1.277 5.995-1.913 7.606s-2.243 3.07-3.186 3.65c-.477.293-.972.475-1.508.555-.544.083-1.113.122-1.691.122h-4.983v-11.818c0-.214-.17-.391-.382-.391h-5.11c-.212 0-.383.177-.383.391v31.779c0 .217.171.391.383.391h5.11c.212 0 .382-.174.382-.391v-14.885h5.664c.953 0 6.454.696 6.943 4.651.487 3.955 1.11 10.341 1.11 10.341.046.168.197.283.367.283h5.235c.121 0 .232-.058.306-.158.074-.098.094-.227.059-.345 0 0-.955-6.999-1.736-11.882s-5.505-6.244-5.411-6.204zm38.509-13.971h-20.729c-.211 0-.38.177-.38.391 0 0 .099 14.715-1.067 20.965-.467 2.502-.701 2.853-1.215 3.724-.5.848-1.147 1.477-1.932 1.867-.871.436-1.852.861-2.924 1.268-.192.074-.294.287-.231.485l1.368 4.423c.051.164.199.271.362.271l.066-.007c1.654-.306 3.149-.806 4.44-1.478 1.318-.686 2.448-1.729 3.356-3.109.889-1.349 1.592-3.153 2.078-5.354.486-2.188.826-5.131 1.021-8.256.195-3.125.427-9.798.427-9.798h9.743v26.777c0 .217.172.391.382.391h5.233c.212 0 .379-.174.379-.391v-31.778c.002-.214-.165-.391-.377-.391zm55.614 24.026c-.071-.081-.174-.128-.281-.128-.146-.027-.209.049-.28.128-.72.821-1.643 1.56-2.744 2.194-1.091.629-2.277.947-3.528.947-2.782 0-4.959-.896-6.474-2.66-1.527-1.77-2.303-4.516-2.303-8.165 0-3.69.775-6.449 2.303-8.197 1.511-1.743 3.691-2.625 6.474-2.625 1.15 0 2.289.281 3.392.83 1.109.547 2.077 1.301 2.877 2.24.069.085.21.141.284.135.109 0 .214-.046.286-.131l3.303-3.845c.134-.156.125-.394-.022-.54-1.358-1.347-2.899-2.451-4.589-3.275-1.713-.833-3.656-1.257-5.771-1.257-1.822 0-3.617.312-5.332.919-1.73.616-3.286 1.605-4.629 2.942-1.344 1.336-2.433 3.073-3.239 5.164-.805 2.087-1.215 4.66-1.215 7.642 0 2.942.41 5.489 1.215 7.573.807 2.098 1.896 3.838 3.239 5.172 1.343 1.34 2.898 2.328 4.629 2.939 1.715.609 3.51.918 5.332.918 2.163 0 4.125-.421 5.834-1.254 1.691-.827 3.235-1.953 4.593-3.345.144-.147.149-.385.012-.54l-3.366-3.781zm-31.526-2.175c0 1.119-.21 2.031-.625 2.709-.422.689-.989 1.251-1.682 1.666-.705.424-1.522.721-2.426.879-.956.171-1.893.252-2.862.252-2.189 0-3.819-.426-4.851-1.258-1.009-.828-1.501-2.684-1.501-4.068 0-1.373.477-3.184 1.46-3.922 1.009-.76 2.486-1.145 4.39-1.145h8.097v4.887zm5.879-11.533c0-2.054-.352-3.796-1.04-5.173-.688-1.376-1.641-2.484-2.83-3.283-1.166-.793-2.549-1.361-4.111-1.697-1.538-.324-3.164-.488-4.826-.488-2.146 0-4.179.363-6.048 1.081-1.883.732-3.438 1.816-4.631 3.22-.128.152-.123.378.011.525l3.243 3.521c.071.083.17.119.286.122.107-.003.207-.052.277-.137.671-.806 1.546-1.446 2.603-1.907 1.072-.47 2.572-.708 4.465-.708 2.396 0 4.145.405 5.195 1.205 1.027.781 1.527 1.957 1.527 3.595v1.636h-9.34c-1.709 0-3.218.269-4.476.796-1.272.528-2.344 1.249-3.188 2.14-.843.89-1.49 1.937-1.919 3.113-.431 1.161-.649 3.186-.649 4.474 0 2.84.996 5.992 2.958 7.832 1.954 1.834 4.78 2.762 8.393 2.762 2.158 0 4.03-.311 5.562-.922 1.126-.448 2.017-1.004 2.66-1.654l.651 1.801c0 .217.171.391.38.391h5.12c.205 0 .377-.174.377-.391 0 0-.649-2.143-.649-5.085v-16.769zm179.793-10.318h-4.316c-.121 0-.236.061-.308.165l-11.514 16.662-3.931 5.896v-22.332c0-.214-.17-.391-.379-.391h-5.114c-.207 0-.377.177-.377.391v31.779c0 .217.17.391.377.391h4.923c.125 0 .242-.061.313-.168l14.71-21.839v21.616c0 .217.172.391.383.391h5.232c.212 0 .382-.174.382-.391v-31.779c.001-.214-.169-.391-.381-.391zm-95.073 0h-5.112c-.21 0-.382.177-.382.391v11.691h-13.578v-11.691c0-.214-.17-.391-.38-.391h-5.115c-.21 0-.38.177-.38.391v31.779c0 .217.17.391.38.391h5.115c.21 0 .38-.174.38-.391v-15.078h13.578v15.077c0 .217.172.391.382.391h5.112c.21 0 .381-.174.381-.391v-31.778c-.001-.214-.171-.391-.381-.391zm-32.206 24.026c-.07-.081-.174-.128-.277-.128-.069-.018-.213.049-.283.132-.698.805-1.621 1.54-2.741 2.19-1.086.629-2.273.947-3.524.947-2.776 0-4.96-.896-6.478-2.66-1.53-1.777-2.306-4.524-2.306-8.165 0-3.681.775-6.439 2.306-8.197 1.518-1.739 3.697-2.625 6.478-2.625 1.147 0 2.286.281 3.391.83 1.107.544 2.071 1.297 2.869 2.24.072.085.176.135.287.135h.002c.107 0 .211-.046.283-.131l3.305-3.845c.136-.156.129-.394-.017-.54-1.359-1.347-2.9-2.448-4.591-3.275-1.717-.833-3.662-1.257-5.773-1.257-1.825 0-3.617.312-5.334.919-1.729.616-3.285 1.605-4.627 2.942-1.347 1.336-2.436 3.073-3.234 5.164-.81 2.096-1.219 4.668-1.219 7.642 0 2.933.409 5.481 1.219 7.573.799 2.098 1.888 3.838 3.234 5.172 1.342 1.34 2.902 2.328 4.627 2.939 1.717.609 3.509.918 5.334.918 2.164 0 4.125-.421 5.831-1.254 1.696-.827 3.241-1.953 4.597-3.345.146-.149.148-.388.011-.54l-3.37-3.781zm89.948-10.055c1.326-.706 3.781-2.917 4.611-5.799.829-2.88 1.974-7.663 1.974-7.663.037-.119.015-.25-.059-.348-.07-.101-.186-.162-.305-.162h-5.114c-.169 0-.314.113-.363.277 0 0-1.278 5.995-1.913 7.606-.636 1.611-2.243 3.07-3.187 3.65-.479.293-.971.475-1.511.555-.543.083-1.11.122-1.688.122h-4.983v-11.818c0-.214-.17-.391-.382-.391h-5.111c-.211 0-.382.177-.382.391v31.779c0 .217.171.391.382.391h5.111c.212 0 .382-.174.382-.391v-14.885h5.663c.954 0 6.455.696 6.944 4.651.487 3.955 1.109 10.341 1.109 10.341.047.168.195.283.368.283h5.234c.121 0 .232-.058.307-.158.07-.098.094-.227.059-.345 0 0-.955-6.999-1.736-11.882s-5.505-6.244-5.41-6.204zm-24.89-13.971h-4.316c-.125 0-.24.061-.312.165l-11.505 16.662-3.934 5.903v-22.339c0-.214-.17-.391-.381-.391h-5.111c-.21 0-.383.177-.383.391v31.779c0 .217.173.391.383.391h4.925c.125 0 .241-.061.312-.168l14.706-21.836v21.613c0 .217.171.391.381.391h5.235c.21 0 .381-.174.381-.391v-31.779c0-.214-.171-.391-.381-.391zm-311.774 20.306c0 3.915-3.244 7.091-7.245 7.091s-7.245-3.176-7.245-7.091v-7.879c0-3.916 3.244-7.089 7.245-7.089s7.245 3.174 7.245 7.089v7.879zm-7.221-20.565c-7.227 0-13.086 5.743-13.086 12.826v7.546c0 7.088 5.859 12.832 13.086 12.832s13.086-5.744 13.086-12.832v-7.546c0-7.083-5.859-12.826-13.086-12.826zm39.289 27.358h-13.788c.744-1.386 1.241-3.08 1.482-5.039.271-2.189.681-4.988.849-8.324l.732-8.343h10.725v21.706zm8.858 0h-2.862v-26.708c0-.214-.172-.391-.382-.391h-21.185c-.202 0-.37.165-.379.372l-1.004 13.51c-.128 2.048-.442 3.796-.564 5.246-.125 1.428-.32 2.668-.58 3.68-.266 1.01-.622 1.828-1.093 2.5-.457.645-1.004 1.358-1.834 1.749-.83.392-3.042.562-3.042.562-.184.034-.314.195-.314.384v12.814c0 .217.171.391.381.391h5.115c.21 0 .381-.174.381-.391v-8.258h21.872v8.258c0 .217.168.391.379.391h5.111c.211 0 .379-.174.379-.391v-13.325c0-.216-.168-.393-.379-.393zm29.982-27.099h-5.116c-.21 0-.38.177-.38.391v11.691h-13.578v-11.691c0-.214-.171-.391-.382-.391h-5.111c-.21 0-.382.177-.382.391v31.779c0 .217.172.391.382.391h5.111c.211 0 .382-.174.382-.391v-15.078h13.578v15.077c0 .217.17.391.38.391h5.116c.206 0 .379-.174.379-.391v-31.778c0-.214-.173-.391-.379-.391zm25.968 20.306c0 3.915-3.244 7.091-7.245 7.091-4 0-7.246-3.176-7.246-7.091v-7.879c0-3.916 3.246-7.089 7.246-7.089 4.001 0 7.245 3.174 7.245 7.089v7.879zm-7.221-20.565c-7.228 0-13.086 5.743-13.086 12.826v7.546c0 7.088 5.858 12.832 13.086 12.832 7.227 0 13.085-5.744 13.085-12.832v-7.546c0-7.083-5.858-12.826-13.085-12.826z"/><g fill="#EB722E"><path d="M29.306 15.307c5.963 0 10.812 4.85 10.812 10.812 0 5.957-4.85 10.808-10.812 10.808-5.957 0-10.812-4.851-10.812-10.808 0-5.962 4.855-10.812 10.812-10.812zm0 36.919c14.404 0 26.113-11.709 26.113-26.106 0-14.403-11.709-26.117-26.113-26.117-14.401 0-26.114 11.714-26.114 26.117 0 14.396 11.713 26.106 26.114 26.106z"/><path d="M39.871 73.529c5.316-1.212 10.443-3.314 15.165-6.281 3.573-2.252 4.65-6.977 2.398-10.55-2.249-3.581-6.971-4.659-10.55-2.407-10.696 6.729-24.47 6.726-35.159 0-3.58-2.252-8.301-1.174-10.548 2.407-2.251 3.577-1.177 8.298 2.397 10.55 4.721 2.963 9.848 5.069 15.164 6.281l-14.6 14.6c-2.985 2.987-2.985 7.83.003 10.818 1.495 1.492 3.451 2.24 5.407 2.24 1.96 0 3.919-.748 5.414-2.24l14.34-14.347 14.353 14.347c2.985 2.987 7.828 2.987 10.815 0 2.991-2.988 2.991-7.834 0-10.818l-14.599-14.6"/></g></svg>