<svg xmlns="http://www.w3.org/2000/svg" width="60" height="102.5"><g fill="#EB722E"><path d="M29.716 16.015c5.964 0 10.813 4.85 10.813 10.813 0 5.957-4.849 10.808-10.813 10.808-5.957 0-10.812-4.851-10.812-10.808-.001-5.963 4.855-10.813 10.812-10.813zm0 36.919c14.404 0 26.114-11.709 26.114-26.105 0-14.403-11.71-26.117-26.114-26.117-14.4 0-26.113 11.714-26.113 26.117-.001 14.395 11.712 26.105 26.113 26.105z"/><path d="M40.281 74.236c5.316-1.211 10.443-3.313 15.165-6.28 3.573-2.252 4.651-6.976 2.398-10.55-2.249-3.582-6.971-4.659-10.551-2.407-10.695 6.728-24.469 6.726-35.159 0-3.579-2.252-8.301-1.175-10.547 2.407-2.252 3.576-1.178 8.298 2.396 10.55 4.721 2.963 9.848 5.069 15.164 6.28l-14.599 14.601c-2.984 2.988-2.984 7.831.003 10.817 1.496 1.494 3.452 2.24 5.408 2.24 1.96 0 3.918-.748 5.414-2.24l14.34-14.346 14.353 14.346c2.984 2.988 7.828 2.988 10.815 0 2.991-2.986 2.991-7.834 0-10.817l-14.6-14.601"/></g></svg>